# xmcd CD database file
#
# Track frame offsets:
#	150
#	74174
#	110596
#	213734
#
# Disc length: 3282 seconds
#
# Revision: 0
# Processed by: cddbd v1.5.1PL0 Copyright (c) Steve Scherf et al.
# Submitted via: CDex 1.51
#
DISCID=420cd004
DTITLE=Terry Oldfield - Austrailia Walking the Spirit
DYEAR=2002
DGENRE=New Age
TTITLE0=Awakening the Seed Dreamer
TTITLE1=Spirit of the Rainbow Serpent
TTITLE2=Living the Dreamtime
TTITLE3=Walkabout
EXTD=YEAR: 2002
EXTT0=
EXTT1=
EXTT2=
EXTT3=
PLAYORDER=
